<svg id="anchor" aria-hidden="true" data-prefix="fas" data-icon="anchor" class="svg-inline--fa fa-anchor fa-w-18" xmlns="http://www.w3.org/2000/svg" viewBox="0 0 576 512"><path fill="currentColor" d="M13 352h32.4C67.2 454.7 181.9 512 288 512c106.2 0 220.9-57.4 242.6-160H563a12 12 0 0 0 8.5-20.5l-67-67a12 12 0 0 0-17 0l-67 67A12 12 0 0 0 429 352H464c-20.3 54.3-85 86.6-144.1 94V256h52a12 12 0 0 0 12-12v-40a12 12 0 0 0-12-12h-52v-5.5a96 96 0 1 0-64 0v5.5h-52a12 12 0 0 0-12 12v40a12 12 0 0 0 12 12h52v190c-59-7.4-123.8-39.7-144.1-94H147a12 12 0 0 0 8.5-20.5l-67-67a12 12 0 0 0-17 0l-67 67A12 12 0 0 0 13 352zM288 64a32 32 0 1 1 0 64 32 32 0 0 1 0-64z"/></svg>