<svg xmlns="http://www.w3.org/2000/svg" viewBox="0 -256 1792 1792" version="1"><path d="M1567 997q0 27-10 71-10 43-21 68-21 50-122 106-94 51-186 51-27 0-52-3-26-4-58-13l-47-14-56-21-49-18q-98-35-175-83-128-79-264-215-137-137-216-265-48-77-83-175l-18-49-20-55-15-48q-9-32-12-57-4-26-4-53 0-92 51-186Q266-63 316-84q25-11 69-21 43-10 70-10 14 0 21 3 18 6 53 76l30 54 35 64 31 53 18 25q14 21 21 36 7 14 7 28 0 20-28 50-29 30-62 55-34 25-62 53-29 28-29 46 0 9 5 23l9 20 14 24 11 19q76 137 174 235t235 174l19 12 24 14 21 8q13 5 22 5 18 0 46-28 28-29 53-62 25-34 55-62 30-29 50-29 14 0 29 7 14 7 35 22l25 17 54 31 63 35 54 30q70 35 76 53 3 7 3 21z" fill="#949494"/></svg>
